├é┬▒├é┬▒├é┬▒├é┬▒├é┬▒├é┬▒├é┬▒├é┬▒├é┬▒├é┬▒├é┬▒├é┬▒├é┬▒├é┬▒├é┬▒├é┬▒├é┬▒├é┬▒├é┬▒├é┬▒├é┬▒├é┬▒├é┬▒├é┬▒├é┬▒├é┬▒├é┬▒├é┬▒├é┬▒├é┬▒>>www.tornster.com<<├é┬▒├é┬▒├é┬▒├é┬▒├é┬▒├é┬▒├é┬▒├é┬▒├é┬▒├é┬▒├é┬▒├é┬▒├é┬▒├é┬▒├é┬▒├é┬▒├é┬▒├é┬▒├é┬▒├é┬▒├é┬▒├é┬▒├é┬▒├é┬▒├é┬▒├é┬▒├é┬▒├é┬▒├é┬▒├é┬▒
├é┬▒                                                                              ├é┬▒
├é┬▒ INFO:                                                                        ├é┬▒
├é┬▒                                                                              ├é┬▒
├é┬▒ General                                                                      ├é┬▒
├é┬▒ Complete name                    : The Taking Of Pelham 123                  ├é┬▒
├é┬▒ Genre                            : Action / Crime / Thriller                 ├é┬▒
├é┬▒ Format                           : AVI                                       ├é┬▒
├é┬▒ Format/Info                      : Audio Video Interleave                    ├é┬▒
├é┬▒ File size                        : 1.37 GiB                                  ├é┬▒
├é┬▒ Duration                         : 1h 41mn                                   ├é┬▒
├é┬▒ Overall bit rate                 : 1 930 Kbps                                ├é┬▒
├é┬▒ Writing application              : VirtualDubMod 1.5.4.1 (build 2178/release)├é┬▒
├é┬▒ Writing library                  : VirtualDubMod build 2178/release          ├é┬▒
├é┬▒                                                                              ├é┬▒
├é┬▒ Video                                                                        ├é┬▒
├é┬▒ Format                           : MPEG-4 Visual                             ├é┬▒
├é┬▒ Format settings, BVOP            : No                                        ├é┬▒
├é┬▒ Format settings, QPel            : No                                        ├é┬▒
├é┬▒ Format settings, GMC             : No warppoints                             ├é┬▒
├é┬▒ Format settings, Matrix          : Default                                   ├é┬▒
├é┬▒ Codec ID                         : DX50                                      ├é┬▒
├é┬▒ Codec ID/Hint                    : DivX 5                                    ├é┬▒
├é┬▒ Duration                         : 1h 41mn                                   ├é┬▒
├é┬▒ Bit rate                         : 1 471 Kbps                                ├é┬▒
├é┬▒ Width                            : 720 pixels                                ├é┬▒
├é┬▒ Height                           : 300 pixels                                ├é┬▒
├é┬▒ Display aspect ratio             : 2.400                                     ├é┬▒
├é┬▒ Frame rate                       : 25.000 fps                                ├é┬▒
├é┬▒ Resolution                       : 24 bits                                   ├é┬▒
├é┬▒ Colorimetry                      : 4:2:0                                     ├é┬▒
├é┬▒ Scan type                        : Progressive                               ├é┬▒
├é┬▒ Bits/(Pixel*Frame)               : 0.272                                     ├é┬▒
├é┬▒ Stream size                      : 1.04 GiB (76%)                            ├é┬▒
├é┬▒ Writing library                  : XviD 50                                   ├é┬▒
├é┬▒                                                                              ├é┬▒
├é┬▒ Audio                                                                        ├é┬▒
├é┬▒ Format                           : AC-3                                      ├é┬▒
├é┬▒ Format/Info                      : Audio Coding 3                            ├é┬▒
├é┬▒ Codec ID                         : 2000                                      ├é┬▒
├é┬▒ Duration                         : 1h 41mn                                   ├é┬▒
├é┬▒ Bit rate mode                    : Constant                                  ├é┬▒
├é┬▒ Bit rate                         : 448 Kbps                                  ├é┬▒
├é┬▒ Channel(s)                       : 6 channels                                ├é┬▒
├é┬▒ Channel positions                : Front: L C R, Surround: L R, LFE          ├é┬▒
├é┬▒ Sampling rate                    : 48.0 KHz                                  ├é┬▒
├é┬▒ Stream size                      : 325 MiB (23%)                             ├é┬▒
├é┬▒ Alignment                        : Aligned on interleaves                    ├é┬▒
├é┬▒ Interleave, duration             : 32 ms (0.80 video frames)                 ├é┬▒
├é┬▒ Interleave, preload duration     : 500 ms                                    ├é┬▒
├é┬▒ Language                         : English                                   ├é┬▒
├é┬▒ Subtitles                        : English                                   ├é┬▒
├é┬▒                                                                              ├é┬▒
├é┬▒ IMDb Rating                      : 6.5/10                                    ├é┬▒
├é┬▒ IMDb URL                         : http://www.imdb.com/title/tt1111422/      ├é┬▒
├é┬▒                                                                              ├é┬▒
├é┬▒├é┬░├é┬░├é┬░├é┬░├é┬░├é┬░├é┬░├é┬░├é┬░├é┬░├é┬░├é┬░├é┬░├é┬░├é┬░├é┬░├é┬░├é┬░├é┬░├é┬░├é┬░├é┬░├é┬░├é┬░├é┬░├é┬░├é┬░├é┬░├é┬░├é┬░├é┬░├é┬░├é┬░├é┬░├é┬░├é┬░├é┬░├é┬░├é┬░├é┬░├é┬░├é┬░├é┬░├é┬░├é┬░├é┬░├é┬░├é┬░├é┬░├é┬░├é┬░├é┬░├é┬░├é┬░├é┬░├é┬░├é┬░├é┬░├é┬░├é┬░├é┬░├é┬░├é┬░├é┬░├é┬░├é┬░├é┬░├é┬░├é┬░├é┬░├é┬░├é┬░├é┬░├é┬░├é┬░├é┬░├é┬░├é┬░├é┬▒
├é┬▒                                                                              ├é┬▒
├é┬▒ New York City subway dispatcher Walter Garber, whose ordinary day is thrown  ├é┬▒
├é┬▒ into chaos by an audacious crime: the hijacking of a subway train. Ryder,    ├é┬▒
├é┬▒ the criminal mastermind who, as leader of a highly-armed gang of four,       ├é┬▒
├é┬▒ threatens to execute the train's passengers unless a large ransom is paid    ├é┬▒
├é┬▒ within one hour. As the tension mounts beneath his feet, Garber employs his  ├é┬▒
├é┬▒ vast knowledge of the subway system in a battle to outwit Ryder and save the ├é┬▒
├é┬▒ hostages. But there's one riddle Garber can't solve: even if the thieves get ├é┬▒
├é┬▒ the money, how can they possibly escape.                                     ├é┬▒
├é┬▒                                                                              ├é┬▒
├é┬▒                                                                              ├é┬▒
├é┬▒├é┬░├é┬░├é┬░├é┬░├é┬░├é┬░├é┬░├é┬░├é┬░├é┬░├é┬░├é┬░├é┬░├é┬░├é┬░├é┬░├é┬░├é┬░├é┬░├é┬░├é┬░├é┬░├é┬░├é┬░├é┬░├é┬░├é┬░├é┬░├é┬░├é┬░├é┬░├é┬░├é┬░├é┬░├é┬░├é┬░├é┬░├é┬░├é┬░├é┬░├é┬░├é┬░├é┬░├é┬░├é┬░├é┬░├é┬░├é┬░├é┬░├é┬░├é┬░├é┬░├é┬░├é┬░├é┬░├é┬░├é┬░├é┬░├é┬░├é┬░├é┬░├é┬░├é┬░├é┬░├é┬░├é┬░├é┬░├é┬░├é┬░├é┬░├é┬░├é┬░├é┬░├é┬░├é┬░├é┬░├é┬░├é┬░├é┬▒
├é┬▒                                                                              ├é┬▒
├é┬▒ CAST:                                                                        ├é┬▒
├é┬▒                                                                              ├é┬▒
├é┬▒ Denzel Washington..........Walter Garber                                     ├é┬▒
├é┬▒ John Travolta..............Ryder                                             ├é┬▒
├é┬▒ Luis Guzm├â┬í`................Phil Ramos                                        ├é┬▒
├é┬▒ Victor Gojcaj..............Bashkim                                           ├é┬▒
├é┬▒ John Turturro..............Camonetti                                         ├é┬▒
├é┬▒ Michael Rispoli............John Johnson                                      ├é┬▒
├é┬▒ Ramon Rodriguez............Delgado                                           ├é┬▒  
├é┬▒                                                                              ├é┬▒
├é┬▒├é┬░├é┬░├é┬░├é┬░├é┬░├é┬░├é┬░├é┬░├é┬░├é┬░├é┬░├é┬░├é┬░├é┬░├é┬░├é┬░├é┬░├é┬░├é┬░├é┬░├é┬░├é┬░├é┬░├é┬░├é┬░├é┬░├é┬░├é┬░├é┬░├é┬░├é┬░├é┬░├é┬░├é┬░├é┬░├é┬░├é┬░├é┬░├é┬░├é┬░├é┬░├é┬░├é┬░├é┬░├é┬░├é┬░├é┬░├é┬░├é┬░├é┬░├é┬░├é┬░├é┬░├é┬░├é┬░├é┬░├é┬░├é┬░├é┬░├é┬░├é┬░├é┬░├é┬░├é┬░├é┬░├é┬░├é┬░├é┬░├é┬░├é┬░├é┬░├é┬░├é┬░├é┬░├é┬░├é┬░├é┬░├é┬░├é┬▒
├é┬▒                                                                              ├é┬▒
├é┬▒                            Please remember to seed                           ├é┬▒
├é┬▒                                                                              ├é┬▒
├é┬▒                              Standalone Enabled                              ├é┬▒
├é┬▒                                                                              ├é┬▒
├é┬▒                               www.tornster.com                               ├é┬▒
├é┬▒                                                                              ├é┬▒
├é┬▒├é┬▒├é┬▒├é┬▒├é┬▒├é┬▒├é┬▒├é┬▒├é┬▒├é┬▒├é┬▒├é┬▒├é┬▒├é┬▒├é┬▒├é┬▒├é┬▒├é┬▒├é┬▒├é┬▒├é┬▒├é┬▒├é┬▒├é┬▒├é┬▒├é┬▒├é┬▒├é┬▒├é┬▒├é┬▒├é┬▒├é┬▒├é┬▒├é┬▒├é┬▒├é┬▒├é┬▒├é┬▒├é┬▒├é┬▒├é┬▒├é┬▒├é┬▒├é┬▒├é┬▒├é┬▒├é┬▒├é┬▒├é┬▒├é┬▒├é┬▒├é┬▒├é┬▒├é┬▒├é┬▒├é┬▒├é┬▒├é┬▒├é┬▒├é┬▒├é┬▒├é┬▒├é┬▒├é┬▒├é┬▒├é┬▒├é┬▒├é┬▒├é┬▒├é┬▒├é┬▒├é┬▒├é┬▒├é┬▒├é┬▒├é┬▒├é┬▒├é┬▒├é┬▒├é┬▒